<?xml version="1.0" encoding="UTF-8"?>
<!DOCTYPE svg PUBLIC "-//W3C//DTD SVG 1.1//EN" "http://www.w3.org/Graphics/SVG/1.1/DTD/svg11.dtd">
<!-- Creator: CorelDRAW 2020 (64-Bit) -->
<svg xmlns="http://www.w3.org/2000/svg" xml:space="preserve" width="1500px" height="750px" version="1.1" style="shape-rendering:geometricPrecision; text-rendering:geometricPrecision; image-rendering:optimizeQuality; fill-rule:evenodd; clip-rule:evenodd"
viewBox="0 0 1437.33 718.67"
 xmlns:xlink="http://www.w3.org/1999/xlink"
 xmlns:xodm="http://www.corel.com/coreldraw/odm/2003">
  <g id="body_color">
   <path class="body_color" d="M641.86 561.76l19.94 11.27c0,0 5.05,-1.73 8.83,1.27 3.78,2.99 21.68,19.63 21.68,19.63l42.73 3.07 16.95 -4.33c0,0 111.23,0.94 133.46,3.62 22.23,2.68 62.44,7.73 62.44,7.73l12.69 -0.32c0,0 -11.35,-30.58 -14.11,-42.33 -2.76,-11.75 -9.18,-55.56 -9.94,-59.36 -0.76,-3.81 -7.49,-26.18 14.27,-40.76 0,0 96.17,-94.29 190.14,-128.66l8.75 -8.35 -7.72 -2.6 27.93 -12.38c0,0 -5.75,-25 -13.37,-39.32l8.41 2.36c0,0 -17.54,-40.6 -43.42,-74.49 0,0 -90.53,-73.12 -132.84,-97.95l-11.43 10.35 12.91 25.29c0,0 72.65,24.97 85.79,111.16l10.97 3.52 -53.87 20.96c0,0 -24.17,12.55 -47.17,4.33 0,0 -21.28,-5.65 -39.41,-8.27 -18.14,-2.63 -43.56,-8.54 -61.1,-15.04 0,0 21.48,-10.45 36.39,-19.78 0,0 -15.43,-26.01 -28.77,-32.39 -13.34,-6.37 -80.54,-31.4 -140.98,-31.66 0,0 -51.87,26.04 -73.16,44.36 -21.28,18.33 -31.43,36.66 -36.46,49.96 0,0 0.3,5.23 17.15,8.38 16.85,3.15 37.35,11.33 37.35,11.33 0,0 -1.09,10.35 -7.3,11.43 -6.2,1.09 -39.31,6.51 -39.31,6.51l0 6.2 29.85 7.99c0,0 79.62,-17.35 92.34,-18.24 12.71,-0.88 118.54,26.02 118.54,26.02 0,0 -17.24,3.94 -27.39,9.07l-165.01 104.7 5.37 10.19 37.97 8.41 3.13 -1.7 7.88 0c4.15,-2.41 9.24,-5.43 9.24,-5.43l76.85 0 5.43 5.43 7.03 0 5.83 5.83 3.71 5.46 -24.39 6.73 -62.32 0c0,0 -6.52,-1.69 -12.84,-3.42l17.91 11.81c0,0 14.19,7.68 7.2,22.56 -7,14.88 -16.46,30.85 -16.46,30.85 0,0 -6.5,10.64 -10.94,11.72 -4.43,1.08 -10.54,7.1 -10.35,11.93 0.2,4.82 -11.08,17.58 -25.03,10.09 -13.94,-7.48 -23.15,-12.61 -23.15,-12.61l-7.29 -0.24 -4.39 4.43 -23.65 -4.39c0,0 -6.55,-2.71 -12.32,0.89 -5.76,3.6 -11.17,7.18 -11.17,7.18z"/>
   <polygon id="container" points="0,0 1437.33,0 1437.33,718.67 0,718.67 "/>
 </g>
</svg>