<?xml version="1.0" encoding="UTF-8"?>
<!DOCTYPE svg PUBLIC "-//W3C//DTD SVG 1.1//EN" "http://www.w3.org/Graphics/SVG/1.1/DTD/svg11.dtd">
<!-- Creator: CorelDRAW 2020 (64-Bit) -->
<svg xmlns="http://www.w3.org/2000/svg" xml:space="preserve" version="1.1" style="shape-rendering:geometricPrecision; text-rendering:geometricPrecision; image-rendering:optimizeQuality; fill-rule:evenodd; clip-rule:evenodd"
viewBox="0 0 100 100"
 xmlns:xlink="http://www.w3.org/1999/xlink"
 xmlns:xodm="http://www.corel.com/coreldraw/odm/2003">
 <defs>
  <style type="text/css">
   <![CDATA[
    .fil4 {fill:#1B1B1B}
    .fil1 {fill:#1B1B1B}
    .fil5 {fill:#4B4B4B}
    .fil3 {fill:#4B4B4B}
    .fil0 {fill:#999999}
    .fil2 {fill:#B5B5B5}
    .fil6 {fill:#EEEEEE}
    .fil7 {fill:url(#id0)}
    .fil8 {fill:url(#id1)}
   ]]>
  </style>
  <radialGradient id="id0" gradientUnits="userSpaceOnUse" gradientTransform="matrix(1 -0 -0 0.999998 0 0)" cx="118.59" cy="118.59" r="112.61" fx="118.59" fy="118.59">
   <stop offset="0" style="stop-opacity:1; stop-color:black"/>
   <stop offset="0.768627" style="stop-opacity:1; stop-color:black"/>
   <stop offset="0.8" style="stop-opacity:1; stop-color:#2B2B2B"/>
   <stop offset="0.831373" style="stop-opacity:1; stop-color:#262626"/>
   <stop offset="0.858824" style="stop-opacity:1; stop-color:#202020"/>
   <stop offset="0.890196" style="stop-opacity:1; stop-color:#505050"/>
   <stop offset="0.901961" style="stop-opacity:1; stop-color:#434343"/>
   <stop offset="0.94902" style="stop-opacity:1; stop-color:#363636"/>
   <stop offset="0.968627" style="stop-opacity:1; stop-color:#3B3B3B"/>
   <stop offset="1" style="stop-opacity:1; stop-color:#404040"/>
  </radialGradient>
  <radialGradient id="id1" gradientUnits="userSpaceOnUse" gradientTransform="matrix(1 -0 -0 1 0 0)" cx="117.48" cy="118.69" r="88.96" fx="117.48" fy="118.69">
   <stop offset="0" style="stop-opacity:1; stop-color:#1B1B1B"/>
   <stop offset="0.839216" style="stop-opacity:1; stop-color:black"/>
   <stop offset="0.85098" style="stop-opacity:1; stop-color:#949494"/>
   <stop offset="0.858824" style="stop-opacity:1; stop-color:#1B1B1B"/>
   <stop offset="0.909804" style="stop-opacity:1; stop-color:#242424"/>
   <stop offset="0.929412" style="stop-opacity:1; stop-color:#5B5B5B"/>
   <stop offset="0.960784" style="stop-opacity:1; stop-color:black"/>
   <stop offset="0.968627" style="stop-opacity:1; stop-color:#4B4B4B"/>
   <stop offset="0.988235" style="stop-opacity:1; stop-color:#2B2B2B"/>
   <stop offset="1" style="stop-opacity:1; stop-color:#1B1B1B"/>
  </radialGradient>
 </defs>
  <g id="front_wheel">
   <path id="pattern" class="fil1" d="M98.12 136.37l-19.26 19.36c-1.89,1.91 -4.08,2.98 -6.75,3.32l-30.91 3.92c1.67,2.93 3.52,5.77 5.54,8.52l0.66 -0.91c1.96,-2.7 4.65,-4.29 7.96,-4.69l14.86 -1.83c3.03,-0.38 5.76,0.33 8.23,2.12l7.56 5.49c2.47,1.79 3.98,4.17 4.56,7.17l2.85 14.7c0.64,3.27 -0.04,6.32 -2,9.02l-0.6 0.83c3.2,1.05 6.45,1.91 9.72,2.58l-5.8 -30.47c-0.5,-2.64 -0.15,-5.06 1.08,-7.45l12.46 -24.3c2.03,-3.96 5.85,-6.3 10.31,-6.3 4.45,0 8.27,2.34 10.31,6.3l12.45 24.3c1.23,2.39 1.58,4.81 1.08,7.45l-5.83 30.6c3.3,-0.68 6.58,-1.56 9.81,-2.63l-0.66 -0.91c-1.96,-2.69 -2.63,-5.75 -2,-9.02l2.85 -14.7c0.58,-3 2.1,-5.38 4.56,-7.17l7.56 -5.49c2.47,-1.79 5.2,-2.5 8.23,-2.12l14.86 1.83c3.31,0.4 6,1.99 7.96,4.69l0.61 0.83c1.98,-2.73 3.8,-5.55 5.45,-8.46l-30.77 -3.9c-2.66,-0.33 -4.85,-1.41 -6.75,-3.32l-19.26 -19.36c-3.14,-3.16 -4.18,-7.51 -2.8,-11.75 1.37,-4.24 4.77,-7.15 9.17,-7.86l26.96 -4.34c2.65,-0.43 5.06,-0.01 7.42,1.28l27.31 15c0.37,-3.35 0.54,-6.74 0.52,-10.14l-1.07 0.35c-3.17,1.02 -6.28,0.73 -9.19,-0.89l-13.11 -7.25c-2.67,-1.48 -4.46,-3.66 -5.4,-6.56l-2.89 -8.88c-0.94,-2.91 -0.77,-5.72 0.52,-8.48l6.34 -13.58c1.41,-3.02 3.75,-5.09 6.92,-6.12l0.97 -0.31c-1.98,-2.74 -4.1,-5.34 -6.35,-7.8l-13.22 28.05c-1.14,2.44 -2.85,4.19 -5.25,5.4l-24.36 12.34c-3.97,2.01 -8.44,1.65 -12.04,-0.97 -3.61,-2.62 -5.33,-6.75 -4.64,-11.15l4.2 -26.98c0.42,-2.66 1.56,-4.82 3.52,-6.66l22.7 -21.34c-3.07,-1.39 -6.24,-2.6 -9.49,-3.64l0 1.13c0,3.33 -1.24,6.2 -3.68,8.47l-10.95 10.22c-2.23,2.08 -4.85,3.12 -7.9,3.12l-9.34 0c-3.06,0 -5.68,-1.04 -7.91,-3.12l-10.95 -10.22c-2.44,-2.27 -3.68,-5.14 -3.68,-8.47l0 -1.03c-3.21,1.04 -6.34,2.25 -9.38,3.64l22.6 21.23c1.95,1.85 3.09,4.01 3.51,6.66l4.2 26.99c0.69,4.4 -1.03,8.53 -4.64,11.15 -3.6,2.62 -8.07,2.98 -12.04,0.96l-24.36 -12.33c-2.4,-1.21 -4.1,-2.96 -5.25,-5.4l-13.28 -28.18c-2.27,2.49 -4.4,5.13 -6.39,7.9l1.08 0.34c3.16,1.03 5.5,3.1 6.91,6.12l6.34 13.57c1.29,2.77 1.46,5.58 0.52,8.49l-2.89 8.88c-0.94,2.9 -2.73,5.08 -5.4,6.56l-13.11 7.25c-2.91,1.62 -6.02,1.91 -9.19,0.89l-0.98 -0.32c0,3.37 0.18,6.73 0.56,10.04l27.18 -14.93c2.36,-1.29 4.77,-1.71 7.42,-1.28l26.96 4.34c4.4,0.71 7.8,3.62 9.18,7.86 1.37,4.24 0.33,8.59 -2.81,11.75zm20.47 -29.9c6.69,0 12.11,5.42 12.11,12.12 0,6.69 -5.42,12.11 -12.11,12.11 -6.7,0 -12.12,-5.42 -12.12,-12.11 0,-6.7 5.42,-12.12 12.12,-12.12z"/>
   <g id="brake_disk">
    <path class="fil2" d="M118.59 58.34c33.27,0 60.25,26.97 60.25,60.25 0,33.27 -26.98,60.25 -60.25,60.25 -33.28,0 -60.25,-26.98 -60.25,-60.25 0,-33.28 26.97,-60.25 60.25,-60.25zm-31.28 85.74l-3.05 1.75c-0.56,0.32 -0.91,0.83 -1.02,1.47 -0.1,0.63 0.06,1.23 0.49,1.71 6.62,7.58 15.67,12.98 25.93,14.98 0.64,0.12 1.23,-0.03 1.73,-0.44 0.5,-0.41 0.76,-0.96 0.76,-1.61l0 -3.52c4.25,0.69 8.62,0.69 12.87,0l0 3.52c0,0.65 0.26,1.2 0.76,1.62 0.5,0.41 1.09,0.55 1.73,0.43 10.26,-2 19.31,-7.4 25.93,-14.97 0.42,-0.49 0.59,-1.08 0.49,-1.72 -0.11,-0.64 -0.46,-1.14 -1.02,-1.46l-3.04 -1.76c2.7,-3.32 4.89,-7.07 6.44,-11.15l3.05 1.76c0.56,0.33 1.17,0.38 1.77,0.15 0.61,-0.23 1.04,-0.67 1.24,-1.28 3.29,-9.64 3.29,-20.3 0,-29.95 -0.2,-0.61 -0.63,-1.05 -1.24,-1.28 -0.6,-0.22 -1.21,-0.17 -1.77,0.15l-3.05 1.76c-1.55,-4.07 -3.74,-7.83 -6.44,-11.15l3.04 -1.75c0.56,-0.32 0.91,-0.83 1.02,-1.46 0.1,-0.64 -0.06,-1.23 -0.49,-1.72 -6.62,-7.57 -15.67,-12.97 -25.93,-14.98 -0.63,-0.12 -1.23,0.03 -1.73,0.44 -0.49,0.41 -0.76,0.96 -0.76,1.61l0 3.52c-4.25,-0.68 -8.61,-0.69 -12.87,0l0 -3.52c0,-0.65 -0.26,-1.2 -0.76,-1.61 -0.5,-0.41 -1.09,-0.56 -1.73,-0.44 -10.26,2 -19.31,7.4 -25.93,14.98 -0.42,0.48 -0.59,1.07 -0.48,1.71 0.1,0.64 0.45,1.14 1.01,1.46l3.05 1.76c-2.71,3.32 -4.9,7.08 -6.45,11.15l-3.04 -1.76c-0.56,-0.32 -1.18,-0.37 -1.78,-0.15 -0.61,0.23 -1.03,0.67 -1.24,1.28 -3.29,9.64 -3.29,20.3 0,29.95 0.21,0.61 0.63,1.05 1.24,1.28 0.6,0.22 1.21,0.17 1.77,-0.15l3.05 -1.76c1.55,4.07 3.74,7.83 6.45,11.15z"/>
    <path class="fil3" d="M118.59 92.84c14.22,0 25.75,11.52 25.75,25.75 0,14.22 -11.53,25.75 -25.75,25.75 -14.23,0 -25.75,-11.53 -25.75,-25.75 0,-14.23 11.52,-25.75 25.75,-25.75zm6.43 65.58l0 -3.79c0,-0.98 0.66,-1.81 1.61,-2.03 6.77,-1.59 12.77,-5.15 17.39,-10.04 0.67,-0.72 1.71,-0.87 2.55,-0.38l3.3 1.9c2.7,-3.32 4.89,-7.07 6.44,-11.15l-3.29 -1.89c-0.85,-0.49 -1.24,-1.47 -0.95,-2.41 0.95,-3.18 1.46,-6.55 1.46,-10.04 0,-3.5 -0.51,-6.87 -1.46,-10.05 -0.29,-0.93 0.1,-1.91 0.95,-2.4l3.29 -1.9c-1.55,-4.07 -3.74,-7.83 -6.44,-11.15l-3.29 1.9c-0.85,0.49 -1.89,0.34 -2.56,-0.37 -4.61,-4.89 -10.62,-8.45 -17.39,-10.05 -0.95,-0.22 -1.61,-1.05 -1.61,-2.03l0 -3.79c-4.25,-0.68 -8.61,-0.69 -12.87,0l0 3.79c0,0.98 -0.65,1.81 -1.61,2.03 -6.76,1.6 -12.77,5.16 -17.38,10.05 -0.68,0.71 -1.72,0.86 -2.56,0.37l-3.29 -1.9c-2.71,3.32 -4.9,7.08 -6.45,11.15l3.29 1.9c0.85,0.49 1.24,1.46 0.96,2.4 -0.96,3.18 -1.47,6.55 -1.47,10.05 0,3.49 0.51,6.86 1.47,10.04 0.28,0.94 -0.11,1.91 -0.96,2.4l-3.29 1.9c1.55,4.07 3.74,7.83 6.45,11.15l3.29 -1.9c0.84,-0.49 1.88,-0.34 2.56,0.37 4.61,4.89 10.61,8.46 17.38,10.05 0.95,0.22 1.61,1.05 1.61,2.03l0 3.79c4.25,0.69 8.62,0.69 12.87,0z"/>
    <path class="fil4" d="M118.59 105.47c7.24,0 13.12,5.87 13.12,13.12 0,7.24 -5.88,13.12 -13.12,13.12 -7.25,0 -13.12,-5.88 -13.12,-13.12 0,-7.25 5.87,-13.12 13.12,-13.12zm0 -6.43c10.79,0 19.54,8.75 19.54,19.55 0,10.79 -8.75,19.54 -19.54,19.54 -10.8,0 -19.55,-8.75 -19.55,-19.54 0,-10.8 8.75,-19.55 19.55,-19.55z"/>
    <path class="fil4" d="M151.51 76.32c1.08,0 1.95,0.87 1.95,1.95 0,1.07 -0.87,1.94 -1.95,1.94 -1.07,0 -1.94,-0.87 -1.94,-1.94 0,-1.08 0.87,-1.95 1.94,-1.95zm-2.32 -6.33c1.07,0 1.95,0.87 1.95,1.95 0,1.07 -0.88,1.94 -1.95,1.94 -1.08,0 -1.95,-0.87 -1.95,-1.94 0,-1.08 0.87,-1.95 1.95,-1.95zm-7.35 2.44c1.08,0 1.95,0.87 1.95,1.95 0,1.07 -0.87,1.94 -1.95,1.94 -1.07,0 -1.94,-0.87 -1.94,-1.94 0,-1.08 0.87,-1.95 1.94,-1.95zm-15.87 -6.91c0.93,-0.54 2.12,-0.22 2.66,0.71 0.54,0.93 0.22,2.12 -0.71,2.66 -0.94,0.54 -2.13,0.22 -2.66,-0.71 -0.54,-0.93 -0.22,-2.12 0.71,-2.66zm-5.18 -4.32c0.93,-0.54 2.12,-0.22 2.66,0.71 0.54,0.93 0.22,2.12 -0.71,2.66 -0.93,0.54 -2.12,0.22 -2.66,-0.71 -0.54,-0.93 -0.22,-2.12 0.71,-2.66zm-5.14 5.79c0.93,-0.54 2.12,-0.22 2.66,0.71 0.53,0.93 0.21,2.12 -0.72,2.66 -0.93,0.53 -2.12,0.21 -2.65,-0.72 -0.54,-0.93 -0.22,-2.12 0.71,-2.65zm-17.2 1.95c0.53,-0.93 1.72,-1.25 2.66,-0.72 0.93,0.54 1.25,1.73 0.71,2.66 -0.54,0.94 -1.73,1.25 -2.66,0.72 -0.93,-0.54 -1.25,-1.73 -0.71,-2.66zm-6.65 -1.16c0.54,-0.93 1.73,-1.25 2.66,-0.71 0.93,0.54 1.25,1.73 0.71,2.66 -0.53,0.93 -1.72,1.25 -2.66,0.71 -0.93,-0.54 -1.24,-1.72 -0.71,-2.66zm-1.56 7.59c0.54,-0.93 1.73,-1.25 2.66,-0.71 0.93,0.53 1.25,1.72 0.71,2.65 -0.54,0.94 -1.73,1.25 -2.66,0.72 -0.93,-0.54 -1.25,-1.73 -0.71,-2.66zm-13.92 10.29c0,-1.08 0.87,-1.95 1.95,-1.95 1.07,0 1.94,0.87 1.94,1.95 0,1.07 -0.87,1.94 -1.94,1.94 -1.08,0 -1.95,-0.87 -1.95,-1.94zm-6.33 2.32c0,-1.07 0.87,-1.94 1.95,-1.94 1.07,0 1.94,0.87 1.94,1.94 0,1.08 -0.87,1.95 -1.94,1.95 -1.08,0 -1.95,-0.87 -1.95,-1.95zm2.44 7.35c0,-1.07 0.87,-1.95 1.95,-1.95 1.07,0 1.94,0.88 1.94,1.95 0,1.08 -0.87,1.95 -1.94,1.95 -1.08,0 -1.95,-0.87 -1.95,-1.95zm-6.91 15.87c-0.54,-0.93 -0.22,-2.12 0.71,-2.66 0.93,-0.53 2.12,-0.22 2.66,0.72 0.54,0.93 0.22,2.12 -0.71,2.65 -0.93,0.54 -2.12,0.22 -2.66,-0.71zm-4.32 5.18c-0.54,-0.93 -0.22,-2.12 0.71,-2.66 0.93,-0.54 2.12,-0.22 2.66,0.71 0.54,0.93 0.22,2.12 -0.71,2.66 -0.93,0.54 -2.12,0.22 -2.66,-0.71zm5.79 5.14c-0.54,-0.93 -0.22,-2.12 0.71,-2.65 0.93,-0.54 2.12,-0.22 2.66,0.71 0.53,0.93 0.21,2.12 -0.72,2.66 -0.93,0.53 -2.12,0.21 -2.65,-0.72zm1.95 17.2c-0.93,-0.53 -1.25,-1.72 -0.72,-2.65 0.54,-0.94 1.73,-1.26 2.66,-0.72 0.93,0.54 1.25,1.73 0.72,2.66 -0.54,0.93 -1.73,1.25 -2.66,0.71zm-1.16 6.65c-0.93,-0.54 -1.25,-1.73 -0.71,-2.66 0.54,-0.93 1.73,-1.25 2.66,-0.71 0.93,0.54 1.25,1.73 0.71,2.66 -0.54,0.93 -1.72,1.25 -2.66,0.71zm7.59 1.56c-0.93,-0.54 -1.25,-1.73 -0.71,-2.66 0.53,-0.93 1.72,-1.25 2.65,-0.71 0.93,0.54 1.25,1.73 0.72,2.66 -0.54,0.93 -1.73,1.25 -2.66,0.71zm10.29 13.92c-1.08,0 -1.95,-0.87 -1.95,-1.95 0,-1.07 0.87,-1.94 1.95,-1.94 1.07,0 1.94,0.87 1.94,1.94 0,1.08 -0.87,1.95 -1.94,1.95zm2.32 6.33c-1.07,0 -1.94,-0.87 -1.94,-1.94 0,-1.08 0.87,-1.95 1.94,-1.95 1.08,0 1.95,0.87 1.95,1.95 0,1.07 -0.87,1.94 -1.95,1.94zm7.35 -2.44c-1.07,0 -1.95,-0.87 -1.95,-1.94 0,-1.08 0.88,-1.95 1.95,-1.95 1.07,0 1.95,0.87 1.95,1.95 0,1.07 -0.88,1.94 -1.95,1.94zm15.87 6.91c-0.93,0.54 -2.12,0.22 -2.66,-0.71 -0.53,-0.93 -0.22,-2.12 0.72,-2.66 0.93,-0.54 2.12,-0.22 2.65,0.71 0.54,0.93 0.22,2.12 -0.71,2.66zm5.18 4.32c-0.93,0.54 -2.12,0.22 -2.66,-0.71 -0.54,-0.93 -0.22,-2.12 0.71,-2.66 0.93,-0.53 2.12,-0.22 2.66,0.71 0.54,0.94 0.22,2.13 -0.71,2.66zm5.14 -5.78c-0.93,0.53 -2.12,0.21 -2.65,-0.72 -0.54,-0.93 -0.22,-2.12 0.71,-2.65 0.93,-0.54 2.12,-0.22 2.66,0.71 0.53,0.93 0.21,2.12 -0.72,2.66zm17.2 -1.96c-0.53,0.94 -1.72,1.25 -2.65,0.72 -0.94,-0.54 -1.26,-1.73 -0.72,-2.66 0.54,-0.93 1.73,-1.25 2.66,-0.71 0.93,0.53 1.25,1.72 0.71,2.65zm6.65 1.16c-0.54,0.93 -1.73,1.25 -2.66,0.71 -0.93,-0.54 -1.25,-1.73 -0.71,-2.66 0.54,-0.93 1.73,-1.25 2.66,-0.71 0.93,0.54 1.25,1.73 0.71,2.66zm1.56 -7.59c-0.54,0.93 -1.73,1.25 -2.66,0.72 -0.93,-0.54 -1.25,-1.73 -0.71,-2.66 0.54,-0.93 1.73,-1.25 2.66,-0.71 0.93,0.53 1.25,1.72 0.71,2.65zm13.92 -10.29c0,1.08 -0.87,1.95 -1.95,1.95 -1.07,0 -1.94,-0.87 -1.94,-1.95 0,-1.07 0.87,-1.94 1.94,-1.94 1.08,0 1.95,0.87 1.95,1.94zm6.33 -2.32c0,1.07 -0.87,1.95 -1.94,1.95 -1.08,0 -1.95,-0.88 -1.95,-1.95 0,-1.08 0.87,-1.95 1.95,-1.95 1.07,0 1.94,0.87 1.94,1.95zm-2.44 -7.35c0,1.08 -0.87,1.95 -1.94,1.95 -1.08,0 -1.95,-0.87 -1.95,-1.95 0,-1.07 0.87,-1.94 1.95,-1.94 1.07,0 1.94,0.87 1.94,1.94zm6.91 -15.87c0.54,0.93 0.22,2.12 -0.71,2.66 -0.93,0.54 -2.12,0.22 -2.66,-0.71 -0.54,-0.94 -0.22,-2.13 0.71,-2.66 0.93,-0.54 2.12,-0.22 2.66,0.71zm4.32 -5.18c0.54,0.93 0.22,2.12 -0.71,2.66 -0.93,0.54 -2.12,0.22 -2.66,-0.71 -0.54,-0.93 -0.22,-2.12 0.71,-2.66 0.94,-0.54 2.12,-0.22 2.66,0.71zm-5.78 -5.14c0.53,0.93 0.21,2.12 -0.72,2.66 -0.93,0.53 -2.12,0.21 -2.65,-0.72 -0.54,-0.93 -0.22,-2.12 0.71,-2.65 0.93,-0.54 2.12,-0.22 2.66,0.71zm-1.96 -17.2c0.94,0.53 1.25,1.73 0.72,2.66 -0.54,0.93 -1.73,1.25 -2.66,0.71 -0.93,-0.54 -1.25,-1.73 -0.72,-2.66 0.54,-0.93 1.73,-1.25 2.66,-0.71zm1.16 -6.65c0.93,0.54 1.25,1.73 0.71,2.66 -0.54,0.93 -1.73,1.25 -2.66,0.71 -0.93,-0.53 -1.25,-1.72 -0.71,-2.65 0.54,-0.94 1.73,-1.25 2.66,-0.72zm-7.59 -1.56c0.93,0.54 1.25,1.73 0.72,2.66 -0.54,0.93 -1.73,1.25 -2.66,0.71 -0.93,-0.54 -1.25,-1.73 -0.71,-2.66 0.53,-0.93 1.72,-1.25 2.65,-0.71z"/>
    <g id="dots">
     <g id="dot_6">
      <circle class="fil5" transform="matrix(0.383312 -0.634368 0.634368 0.383312 84.2628 98.6194)" r="6.24"/>
      <circle class="fil6" transform="matrix(0.33928 -0.561495 0.561495 0.33928 84.2628 98.6195)" r="6.24"/>
      <circle class="fil4" transform="matrix(0.17332 -0.286839 0.286839 0.17332 84.2628 98.6197)" r="6.24"/>
     </g>
     <g id="dot_5">
      <circle class="fil5" transform="matrix(-0.357723 -0.649142 0.649142 -0.357723 84.1328 138.327)" r="6.24"/>
      <circle class="fil6" transform="matrix(-0.316629 -0.574573 0.574573 -0.316629 84.1329 138.327)" r="6.24"/>
      <circle class="fil4" transform="matrix(-0.16175 -0.293519 0.293519 -0.16175 84.1331 138.327)" r="6.24"/>
     </g>
     <g id="dot_4">
      <circle class="fil5" transform="matrix(-0.741035 -0.0147744 0.0147744 -0.741035 118.456 158.294)" r="6.24"/>
      <circle class="fil6" transform="matrix(-0.655909 -0.0130772 0.0130772 -0.655909 118.456 158.293)" r="6.24"/>
      <circle class="fil4" transform="matrix(-0.33507 -0.00668045 0.00668045 -0.33507 118.456 158.293)" r="6.24"/>
     </g>
     <g id="dot_3">
      <circle class="fil5" transform="matrix(-0.383312 0.634368 -0.634368 -0.383312 152.909 138.552)" r="6.24"/>
      <circle class="fil6" transform="matrix(-0.33928 0.561495 -0.561495 -0.33928 152.909 138.552)" r="6.24"/>
      <circle class="fil4" transform="matrix(-0.17332 0.286839 -0.286839 -0.17332 152.909 138.552)" r="6.24"/>
     </g>
     <g id="dot_2">
      <circle class="fil5" transform="matrix(0.357723 0.649142 -0.649142 0.357723 153.039 98.8445)" r="6.24"/>
      <circle class="fil6" transform="matrix(0.316629 0.574573 -0.574573 0.316629 153.038 98.8444)" r="6.24"/>
      <circle class="fil4" transform="matrix(0.16175 0.293519 -0.293519 0.16175 153.038 98.8444)" r="6.24"/>
     </g>
     <g id="dot_1">
      <circle class="fil5" transform="matrix(0.741035 0.0147744 -0.0147744 0.741035 118.716 78.8781)" r="6.24"/>
      <circle class="fil6" transform="matrix(0.655909 0.0130772 -0.0130772 0.655909 118.716 78.8781)" r="6.24"/>
      <circle class="fil4" transform="matrix(0.33507 0.00668045 -0.00668045 0.33507 118.715 78.8783)" r="6.24"/>
     </g>
    </g>
   </g>
   <path id="tire" class="fil7" d="M118.59 25.98c51.14,0 92.61,41.46 92.61,92.61 0,51.14 -41.47,92.61 -92.61,92.61 -51.15,0 -92.61,-41.47 -92.61,-92.61 0,-51.15 41.46,-92.61 92.61,-92.61zm0 -25.98c65.48,0 118.58,53.1 118.58,118.59 0,65.48 -53.1,118.58 -118.58,118.58 -65.49,0 -118.59,-53.1 -118.59,-118.58 0,-65.49 53.1,-118.59 118.59,-118.59z"/>
   <path id="rim" class="fil8" d="M117.48 25c51.74,0 93.68,41.94 93.68,93.69 0,51.74 -41.94,93.68 -93.68,93.68 -51.74,0 -93.68,-41.94 -93.68,-93.68 0,-51.75 41.94,-93.69 93.68,-93.69zm0 15.04c43.43,0 78.64,35.21 78.64,78.65 0,43.43 -35.21,78.64 -78.64,78.64 -43.43,0 -78.64,-35.21 -78.64,-78.64 0,-43.44 35.21,-78.65 78.64,-78.65z"/>
  </g>
</svg>
