<?xml version="1.0" encoding="UTF-8"?>
<!DOCTYPE svg PUBLIC "-//W3C//DTD SVG 1.1//EN" "http://www.w3.org/Graphics/SVG/1.1/DTD/svg11.dtd">
<!-- Creator: CorelDRAW 2020 (64-Bit) -->
<svg xmlns="http://www.w3.org/2000/svg" xml:space="preserve" version="1.1" style="shape-rendering:geometricPrecision; text-rendering:geometricPrecision; image-rendering:optimizeQuality; fill-rule:evenodd; clip-rule:evenodd"
viewBox="0 0 66.81 66.81"
 xmlns:xlink="http://www.w3.org/1999/xlink"
 xmlns:xodm="http://www.corel.com/coreldraw/odm/2003">
 <defs>
  <style type="text/css">
   <![CDATA[
    .fil4 {fill:#1B1B1B}
    .fil1 {fill:#1B1B1B}
    .fil5 {fill:#4B4B4B}
    .fil3 {fill:#4B4B4B}
    .fil0 {fill:#999999}
    .fil2 {fill:#B5B5B5}
    .fil6 {fill:#EEEEEE}
    .fil7 {fill:url(#id0)}
    .fil8 {fill:url(#id1)}
   ]]>
  </style>
  <radialGradient id="id0" gradientUnits="userSpaceOnUse" gradientTransform="matrix(1 -0 -0 0.999998 0 0)" cx="33.41" cy="33.41" r="31.72" fx="33.41" fy="33.41">
   <stop offset="0" style="stop-opacity:1; stop-color:black"/>
   <stop offset="0.768627" style="stop-opacity:1; stop-color:black"/>
   <stop offset="0.8" style="stop-opacity:1; stop-color:#2B2B2B"/>
   <stop offset="0.831373" style="stop-opacity:1; stop-color:#262626"/>
   <stop offset="0.858824" style="stop-opacity:1; stop-color:#202020"/>
   <stop offset="0.890196" style="stop-opacity:1; stop-color:#505050"/>
   <stop offset="0.901961" style="stop-opacity:1; stop-color:#434343"/>
   <stop offset="0.94902" style="stop-opacity:1; stop-color:#363636"/>
   <stop offset="0.968627" style="stop-opacity:1; stop-color:#3B3B3B"/>
   <stop offset="1" style="stop-opacity:1; stop-color:#404040"/>
  </radialGradient>
  <radialGradient id="id1" gradientUnits="userSpaceOnUse" gradientTransform="matrix(0.999999 -0 -0 1 0 0)" cx="33.41" cy="33.41" r="25.06" fx="33.41" fy="33.41">
   <stop offset="0" style="stop-opacity:1; stop-color:#1B1B1B"/>
   <stop offset="0.839216" style="stop-opacity:1; stop-color:black"/>
   <stop offset="0.85098" style="stop-opacity:1; stop-color:#949494"/>
   <stop offset="0.858824" style="stop-opacity:1; stop-color:#1B1B1B"/>
   <stop offset="0.909804" style="stop-opacity:1; stop-color:#242424"/>
   <stop offset="0.929412" style="stop-opacity:1; stop-color:#5B5B5B"/>
   <stop offset="0.960784" style="stop-opacity:1; stop-color:black"/>
   <stop offset="0.968627" style="stop-opacity:1; stop-color:#4B4B4B"/>
   <stop offset="0.988235" style="stop-opacity:1; stop-color:#2B2B2B"/>
   <stop offset="1" style="stop-opacity:1; stop-color:#1B1B1B"/>
  </radialGradient>
 </defs>
  <g id="front_wheel">
   <path id="pattern" class="fil1" d="M27.64 38.42l-5.42 5.45c-0.54,0.54 -1.16,0.84 -1.91,0.94l-8.7 1.1c0.47,0.83 0.99,1.63 1.56,2.4l0.18 -0.26c0.55,-0.76 1.31,-1.2 2.24,-1.32l4.19 -0.51c0.86,-0.11 1.62,0.09 2.32,0.6l2.13 1.54c0.69,0.51 1.12,1.18 1.28,2.02l0.81 4.14c0.18,0.93 -0.01,1.78 -0.57,2.54l-0.17 0.24c0.91,0.29 1.82,0.54 2.74,0.72l-1.63 -8.58c-0.14,-0.74 -0.04,-1.42 0.3,-2.1l3.51 -6.84c0.58,-1.12 1.65,-1.78 2.91,-1.78 1.25,0 2.33,0.66 2.9,1.78l3.51 6.84c0.35,0.68 0.44,1.36 0.3,2.1l-1.64 8.62c0.93,-0.19 1.85,-0.44 2.77,-0.74l-0.19 -0.26c-0.55,-0.75 -0.74,-1.61 -0.56,-2.54l0.8 -4.14c0.16,-0.84 0.59,-1.51 1.28,-2.02l2.13 -1.54c0.7,-0.51 1.47,-0.71 2.32,-0.6l4.19 0.51c0.93,0.12 1.69,0.56 2.24,1.32l0.17 0.24c0.56,-0.77 1.07,-1.57 1.54,-2.38l-8.67 -1.1c-0.75,-0.1 -1.37,-0.4 -1.9,-0.94l-5.43 -5.45c-0.88,-0.89 -1.18,-2.12 -0.79,-3.31 0.39,-1.2 1.35,-2.02 2.59,-2.22l7.59 -1.22c0.75,-0.12 1.43,0 2.09,0.36l7.69 4.23c0.11,-0.95 0.16,-1.9 0.15,-2.86l-0.3 0.1c-0.89,0.29 -1.77,0.2 -2.59,-0.25l-3.69 -2.05c-0.75,-0.41 -1.26,-1.02 -1.52,-1.84l-0.82 -2.51c-0.26,-0.81 -0.21,-1.61 0.15,-2.38l1.78 -3.83c0.4,-0.85 1.06,-1.43 1.95,-1.72l0.28 -0.09c-0.56,-0.77 -1.16,-1.5 -1.79,-2.2l-3.72 7.91c-0.33,0.68 -0.81,1.17 -1.48,1.52l-6.87 3.47c-1.12,0.57 -2.37,0.47 -3.39,-0.27 -1.01,-0.74 -1.5,-1.9 -1.31,-3.14l1.19 -7.6c0.12,-0.75 0.44,-1.36 0.99,-1.88l6.39 -6.01c-0.86,-0.39 -1.75,-0.73 -2.67,-1.03l0 0.32c0,0.94 -0.35,1.75 -1.04,2.39l-3.08 2.88c-0.63,0.58 -1.37,0.88 -2.23,0.88l-2.63 0c-0.86,0 -1.6,-0.3 -2.23,-0.88l-3.08 -2.88c-0.69,-0.64 -1.04,-1.45 -1.04,-2.39l0 -0.29c-0.9,0.29 -1.78,0.64 -2.64,1.03l6.37 5.98c0.55,0.52 0.87,1.13 0.98,1.88l1.19 7.6c0.19,1.24 -0.29,2.4 -1.31,3.14 -1.01,0.74 -2.27,0.84 -3.39,0.27l-6.86 -3.47c-0.68,-0.35 -1.16,-0.84 -1.48,-1.52l-3.74 -7.94c-0.64,0.7 -1.24,1.44 -1.8,2.22l0.3 0.1c0.89,0.29 1.55,0.87 1.95,1.72l1.78 3.83c0.37,0.77 0.42,1.57 0.15,2.38l-0.81 2.51c-0.27,0.82 -0.77,1.43 -1.53,1.84l-3.69 2.05c-0.82,0.45 -1.69,0.54 -2.59,0.25l-0.27 -0.09c0,0.95 0.05,1.89 0.15,2.83l7.66 -4.21c0.67,-0.36 1.34,-0.48 2.09,-0.36l7.6 1.22c1.24,0.2 2.19,1.02 2.58,2.22 0.39,1.19 0.1,2.42 -0.79,3.31zm5.77 -8.43c1.88,0 3.41,1.53 3.41,3.42 0,1.88 -1.53,3.41 -3.41,3.41 -1.89,0 -3.42,-1.53 -3.42,-3.41 0,-1.89 1.53,-3.42 3.42,-3.42z"/>
   <g id="brake_disk">
    <path class="fil2" d="M33.41 16.43c9.37,0 16.97,7.6 16.97,16.98 0,9.37 -7.6,16.97 -16.97,16.97 -9.38,0 -16.98,-7.6 -16.98,-16.97 0,-9.38 7.6,-16.98 16.98,-16.98zm-8.82 24.16l-0.85 0.49c-0.16,0.09 -0.26,0.24 -0.29,0.42 -0.03,0.18 0.02,0.34 0.14,0.48 1.86,2.13 4.41,3.65 7.3,4.22 0.18,0.03 0.35,-0.01 0.49,-0.12 0.14,-0.12 0.21,-0.28 0.21,-0.46l0 -0.99c1.2,0.19 2.43,0.19 3.63,0l0 0.99c0,0.18 0.07,0.34 0.21,0.46 0.14,0.11 0.31,0.15 0.49,0.12 2.89,-0.57 5.44,-2.09 7.31,-4.22 0.12,-0.14 0.16,-0.3 0.13,-0.48 -0.03,-0.18 -0.13,-0.32 -0.28,-0.42l-0.86 -0.49c0.76,-0.94 1.38,-1.99 1.81,-3.14l0.86 0.5c0.16,0.09 0.33,0.1 0.5,0.04 0.17,-0.07 0.29,-0.19 0.35,-0.36 0.93,-2.72 0.93,-5.72 0,-8.44 -0.06,-0.17 -0.18,-0.3 -0.35,-0.36 -0.17,-0.07 -0.34,-0.05 -0.5,0.04l-0.86 0.5c-0.43,-1.15 -1.05,-2.21 -1.81,-3.14l0.86 -0.5c0.15,-0.09 0.25,-0.23 0.28,-0.41 0.03,-0.18 -0.01,-0.35 -0.13,-0.48 -1.87,-2.14 -4.42,-3.66 -7.31,-4.22 -0.18,-0.04 -0.35,0 -0.49,0.12 -0.14,0.11 -0.21,0.27 -0.21,0.45l0 0.99c-1.2,-0.19 -2.43,-0.19 -3.63,0l0 -0.99c0,-0.18 -0.07,-0.34 -0.21,-0.45 -0.14,-0.12 -0.31,-0.16 -0.49,-0.12 -2.89,0.56 -5.44,2.08 -7.3,4.21 -0.12,0.14 -0.17,0.31 -0.14,0.49 0.03,0.18 0.13,0.32 0.29,0.41l0.85 0.5c-0.76,0.93 -1.37,1.99 -1.81,3.14l-0.86 -0.5c-0.16,-0.09 -0.33,-0.11 -0.5,-0.04 -0.17,0.06 -0.29,0.19 -0.35,0.36 -0.92,2.72 -0.93,5.72 0,8.44 0.06,0.17 0.18,0.29 0.35,0.36 0.17,0.06 0.34,0.05 0.5,-0.05l0.86 -0.49c0.44,1.15 1.05,2.2 1.81,3.14z"/>
    <path class="fil3" d="M33.41 26.15c4,0 7.25,3.25 7.25,7.26 0,4 -3.25,7.25 -7.25,7.25 -4.01,0 -7.26,-3.25 -7.26,-7.25 0,-4.01 3.25,-7.26 7.26,-7.26zm1.81 18.48l0 -1.07c0,-0.27 0.18,-0.51 0.45,-0.57 1.91,-0.45 3.6,-1.45 4.9,-2.83 0.19,-0.2 0.48,-0.24 0.72,-0.11l0.93 0.54c0.76,-0.94 1.38,-1.99 1.81,-3.14l-0.92 -0.54c-0.24,-0.13 -0.35,-0.41 -0.27,-0.67 0.27,-0.9 0.41,-1.85 0.41,-2.83 0,-0.99 -0.14,-1.94 -0.41,-2.83 -0.08,-0.27 0.03,-0.54 0.27,-0.68l0.92 -0.53c-0.43,-1.15 -1.05,-2.21 -1.81,-3.14l-0.93 0.53c-0.24,0.14 -0.53,0.1 -0.72,-0.1 -1.3,-1.38 -2.99,-2.39 -4.9,-2.83 -0.27,-0.07 -0.45,-0.3 -0.45,-0.58l0 -1.07c-1.2,-0.19 -2.43,-0.19 -3.63,0l0 1.07c0,0.28 -0.18,0.51 -0.45,0.58 -1.91,0.44 -3.6,1.45 -4.9,2.82 -0.19,0.21 -0.48,0.25 -0.72,0.11l-0.93 -0.53c-0.76,0.93 -1.37,1.99 -1.81,3.14l0.93 0.53c0.23,0.14 0.34,0.41 0.27,0.68 -0.27,0.89 -0.42,1.84 -0.42,2.83 0,0.98 0.15,1.93 0.41,2.83 0.08,0.26 -0.03,0.54 -0.26,0.67l-0.93 0.54c0.44,1.15 1.05,2.2 1.81,3.14l0.93 -0.54c0.24,-0.13 0.53,-0.09 0.72,0.11 1.3,1.38 2.99,2.38 4.9,2.83 0.27,0.06 0.45,0.3 0.45,0.57l0 1.07c1.2,0.19 2.43,0.19 3.63,0z"/>
    <path class="fil4" d="M33.41 29.71c2.04,0 3.69,1.66 3.69,3.7 0,2.04 -1.65,3.69 -3.69,3.69 -2.04,0 -3.7,-1.65 -3.7,-3.69 0,-2.04 1.66,-3.7 3.7,-3.7zm0 -1.81c3.04,0 5.5,2.47 5.5,5.51 0,3.04 -2.46,5.5 -5.5,5.5 -3.04,0 -5.51,-2.46 -5.51,-5.5 0,-3.04 2.47,-5.51 5.51,-5.51z"/>
    <path class="fil4" d="M42.68 21.5c0.31,0 0.55,0.25 0.55,0.55 0,0.3 -0.24,0.55 -0.55,0.55 -0.3,0 -0.55,-0.25 -0.55,-0.55 0,-0.3 0.25,-0.55 0.55,-0.55zm-0.65 -1.78c0.3,0 0.55,0.24 0.55,0.55 0,0.3 -0.25,0.54 -0.55,0.54 -0.3,0 -0.55,-0.24 -0.55,-0.54 0,-0.31 0.25,-0.55 0.55,-0.55zm-2.07 0.68c0.3,0 0.55,0.25 0.55,0.55 0,0.31 -0.25,0.55 -0.55,0.55 -0.3,0 -0.55,-0.24 -0.55,-0.55 0,-0.3 0.25,-0.55 0.55,-0.55zm-4.47 -1.94c0.26,-0.15 0.59,-0.06 0.75,0.2 0.15,0.26 0.06,0.6 -0.2,0.75 -0.27,0.15 -0.6,0.06 -0.75,-0.2 -0.16,-0.27 -0.07,-0.6 0.2,-0.75zm-1.46 -1.22c0.26,-0.15 0.6,-0.06 0.75,0.2 0.15,0.26 0.06,0.6 -0.2,0.75 -0.27,0.15 -0.6,0.06 -0.75,-0.2 -0.15,-0.26 -0.06,-0.6 0.2,-0.75zm-1.45 1.63c0.26,-0.15 0.6,-0.06 0.75,0.2 0.15,0.26 0.06,0.6 -0.2,0.75 -0.26,0.15 -0.6,0.06 -0.75,-0.2 -0.15,-0.26 -0.06,-0.6 0.2,-0.75zm-4.85 0.55c0.15,-0.26 0.49,-0.35 0.75,-0.2 0.26,0.15 0.35,0.49 0.2,0.75 -0.15,0.26 -0.48,0.35 -0.75,0.2 -0.26,-0.15 -0.35,-0.49 -0.2,-0.75zm-1.87 -0.32c0.15,-0.27 0.49,-0.36 0.75,-0.21 0.26,0.16 0.35,0.49 0.2,0.75 -0.15,0.27 -0.49,0.36 -0.75,0.2 -0.26,-0.15 -0.35,-0.48 -0.2,-0.74zm-0.44 2.13c0.15,-0.26 0.49,-0.35 0.75,-0.2 0.26,0.15 0.35,0.49 0.2,0.75 -0.15,0.26 -0.49,0.35 -0.75,0.2 -0.26,-0.15 -0.35,-0.49 -0.2,-0.75zm-3.92 2.9c0,-0.3 0.25,-0.55 0.55,-0.55 0.3,0 0.55,0.25 0.55,0.55 0,0.3 -0.25,0.55 -0.55,0.55 -0.3,0 -0.55,-0.25 -0.55,-0.55zm-1.78 0.66c0,-0.31 0.24,-0.55 0.54,-0.55 0.31,0 0.55,0.24 0.55,0.55 0,0.3 -0.24,0.54 -0.55,0.54 -0.3,0 -0.54,-0.24 -0.54,-0.54zm0.68 2.07c0,-0.31 0.25,-0.55 0.55,-0.55 0.3,0 0.55,0.24 0.55,0.55 0,0.3 -0.25,0.54 -0.55,0.54 -0.3,0 -0.55,-0.24 -0.55,-0.54zm-1.94 4.47c-0.15,-0.27 -0.06,-0.6 0.2,-0.75 0.26,-0.15 0.6,-0.06 0.75,0.2 0.15,0.26 0.06,0.6 -0.2,0.75 -0.27,0.15 -0.6,0.06 -0.75,-0.2zm-1.22 1.46c-0.15,-0.27 -0.06,-0.6 0.2,-0.75 0.26,-0.15 0.6,-0.06 0.75,0.2 0.15,0.26 0.06,0.6 -0.2,0.75 -0.26,0.15 -0.6,0.06 -0.75,-0.2zm1.63 1.45c-0.15,-0.27 -0.06,-0.6 0.2,-0.75 0.26,-0.16 0.6,-0.07 0.75,0.2 0.15,0.26 0.06,0.59 -0.2,0.75 -0.26,0.15 -0.6,0.06 -0.75,-0.2zm0.55 4.84c-0.26,-0.15 -0.35,-0.49 -0.2,-0.75 0.15,-0.26 0.49,-0.35 0.75,-0.2 0.26,0.15 0.35,0.49 0.2,0.75 -0.15,0.26 -0.49,0.35 -0.75,0.2zm-0.32 1.87c-0.27,-0.15 -0.36,-0.48 -0.21,-0.75 0.16,-0.26 0.49,-0.35 0.75,-0.2 0.27,0.15 0.36,0.49 0.2,0.75 -0.15,0.26 -0.48,0.35 -0.74,0.2zm2.13 0.44c-0.26,-0.15 -0.35,-0.48 -0.2,-0.75 0.15,-0.26 0.49,-0.35 0.75,-0.2 0.26,0.15 0.35,0.49 0.2,0.75 -0.15,0.26 -0.49,0.35 -0.75,0.2zm2.9 3.92c-0.3,0 -0.55,-0.24 -0.55,-0.54 0,-0.31 0.25,-0.55 0.55,-0.55 0.3,0 0.55,0.24 0.55,0.55 0,0.3 -0.25,0.54 -0.55,0.54zm0.66 1.79c-0.31,0 -0.55,-0.25 -0.55,-0.55 0,-0.3 0.24,-0.55 0.55,-0.55 0.3,0 0.54,0.25 0.54,0.55 0,0.3 -0.24,0.55 -0.54,0.55zm2.07 -0.69c-0.31,0 -0.55,-0.25 -0.55,-0.55 0,-0.3 0.24,-0.55 0.55,-0.55 0.3,0 0.54,0.25 0.54,0.55 0,0.3 -0.24,0.55 -0.54,0.55zm4.47 1.95c-0.27,0.15 -0.6,0.06 -0.75,-0.2 -0.15,-0.27 -0.06,-0.6 0.2,-0.75 0.26,-0.15 0.6,-0.06 0.75,0.2 0.15,0.26 0.06,0.6 -0.2,0.75zm1.46 1.21c-0.27,0.16 -0.6,0.07 -0.75,-0.2 -0.15,-0.26 -0.07,-0.59 0.2,-0.75 0.26,-0.15 0.59,-0.06 0.75,0.21 0.15,0.26 0.06,0.59 -0.2,0.74zm1.44 -1.63c-0.26,0.16 -0.59,0.07 -0.74,-0.2 -0.16,-0.26 -0.07,-0.59 0.2,-0.75 0.26,-0.15 0.59,-0.06 0.75,0.21 0.15,0.26 0.06,0.59 -0.21,0.74zm4.85 -0.55c-0.15,0.27 -0.49,0.36 -0.75,0.2 -0.26,-0.15 -0.35,-0.48 -0.2,-0.74 0.15,-0.27 0.49,-0.36 0.75,-0.2 0.26,0.15 0.35,0.48 0.2,0.74zm1.87 0.33c-0.15,0.26 -0.48,0.35 -0.75,0.2 -0.26,-0.15 -0.35,-0.49 -0.2,-0.75 0.15,-0.26 0.49,-0.35 0.75,-0.2 0.26,0.15 0.35,0.49 0.2,0.75zm0.44 -2.14c-0.15,0.26 -0.48,0.35 -0.75,0.2 -0.26,-0.15 -0.35,-0.48 -0.2,-0.75 0.15,-0.26 0.49,-0.35 0.75,-0.2 0.26,0.16 0.35,0.49 0.2,0.75zm3.92 -2.9c0,0.31 -0.24,0.55 -0.54,0.55 -0.31,0 -0.55,-0.24 -0.55,-0.55 0,-0.3 0.24,-0.54 0.55,-0.54 0.3,0 0.54,0.24 0.54,0.54zm1.79 -0.65c0,0.3 -0.25,0.55 -0.55,0.55 -0.3,0 -0.55,-0.25 -0.55,-0.55 0,-0.3 0.25,-0.55 0.55,-0.55 0.3,0 0.55,0.25 0.55,0.55zm-0.69 -2.07c0,0.3 -0.25,0.55 -0.55,0.55 -0.3,0 -0.55,-0.25 -0.55,-0.55 0,-0.3 0.25,-0.55 0.55,-0.55 0.3,0 0.55,0.25 0.55,0.55zm1.95 -4.47c0.15,0.26 0.06,0.6 -0.2,0.75 -0.27,0.15 -0.6,0.06 -0.75,-0.2 -0.15,-0.27 -0.06,-0.6 0.2,-0.75 0.26,-0.15 0.59,-0.06 0.75,0.2zm1.21 -1.46c0.16,0.26 0.07,0.6 -0.2,0.75 -0.26,0.15 -0.59,0.06 -0.75,-0.2 -0.15,-0.27 -0.06,-0.6 0.2,-0.75 0.27,-0.15 0.6,-0.06 0.75,0.2zm-1.63 -1.45c0.15,0.26 0.06,0.6 -0.2,0.75 -0.26,0.15 -0.59,0.06 -0.75,-0.2 -0.15,-0.26 -0.06,-0.6 0.2,-0.75 0.27,-0.15 0.6,-0.06 0.75,0.2zm-0.55 -4.85c0.27,0.16 0.36,0.49 0.2,0.75 -0.15,0.27 -0.48,0.36 -0.74,0.2 -0.27,-0.15 -0.36,-0.48 -0.21,-0.75 0.16,-0.26 0.49,-0.35 0.75,-0.2zm0.33 -1.87c0.26,0.15 0.35,0.49 0.2,0.75 -0.15,0.26 -0.49,0.35 -0.75,0.2 -0.26,-0.15 -0.35,-0.49 -0.2,-0.75 0.15,-0.26 0.49,-0.35 0.75,-0.2zm-2.14 -0.44c0.26,0.15 0.35,0.49 0.2,0.75 -0.15,0.26 -0.48,0.35 -0.75,0.2 -0.26,-0.15 -0.35,-0.48 -0.2,-0.75 0.15,-0.26 0.49,-0.35 0.75,-0.2z"/>
    <g id="dots">
     <g id="dot_6">
      <circle class="fil5" transform="matrix(0.383312 -0.634368 0.634368 0.383313 23.7375 27.7825)" r="1.76"/>
      <circle class="fil6" transform="matrix(0.33928 -0.561495 0.561495 0.33928 23.7375 27.7825)" r="1.76"/>
      <circle class="fil4" transform="matrix(0.17332 -0.286839 0.286839 0.17332 23.7375 27.7825)" r="1.76"/>
     </g>
     <g id="dot_5">
      <circle class="fil5" transform="matrix(-0.357722 -0.649142 0.649142 -0.357723 23.7009 38.9688)" r="1.76"/>
      <circle class="fil6" transform="matrix(-0.316629 -0.574573 0.574573 -0.316629 23.7009 38.9688)" r="1.76"/>
      <circle class="fil4" transform="matrix(-0.16175 -0.293519 0.293519 -0.16175 23.7009 38.9688)" r="1.76"/>
     </g>
     <g id="dot_4">
      <circle class="fil5" transform="matrix(-0.741035 -0.0147744 0.0147744 -0.741035 33.3702 44.5936)" r="1.76"/>
      <circle class="fil6" transform="matrix(-0.655909 -0.0130772 0.0130772 -0.655909 33.3702 44.5936)" r="1.76"/>
      <circle class="fil4" transform="matrix(-0.33507 -0.00668045 0.00668045 -0.33507 33.3703 44.5936)" r="1.76"/>
     </g>
     <g id="dot_3">
      <circle class="fil5" transform="matrix(-0.383312 0.634368 -0.634368 -0.383313 43.0761 39.0322)" r="1.76"/>
      <circle class="fil6" transform="matrix(-0.33928 0.561495 -0.561495 -0.33928 43.0761 39.0322)" r="1.76"/>
      <circle class="fil4" transform="matrix(-0.17332 0.286839 -0.286839 -0.17332 43.0761 39.0321)" r="1.76"/>
     </g>
     <g id="dot_2">
      <circle class="fil5" transform="matrix(0.357722 0.649142 -0.649142 0.357723 43.1127 27.8459)" r="1.76"/>
      <circle class="fil6" transform="matrix(0.316629 0.574573 -0.574573 0.316629 43.1127 27.8459)" r="1.76"/>
      <circle class="fil4" transform="matrix(0.16175 0.293519 -0.293519 0.16175 43.1127 27.8458)" r="1.76"/>
     </g>
     <g id="dot_1">
      <circle class="fil5" transform="matrix(0.741035 0.0147744 -0.0147744 0.741035 33.4434 22.221)" r="1.76"/>
      <circle class="fil6" transform="matrix(0.655909 0.0130772 -0.0130772 0.655909 33.4434 22.221)" r="1.76"/>
      <circle class="fil4" transform="matrix(0.33507 0.00668045 -0.00668045 0.33507 33.4433 22.2211)" r="1.76"/>
     </g>
    </g>
   </g>
   <path id="tire" class="fil7" d="M33.41 7.32c14.4,0 26.09,11.68 26.09,26.09 0,14.41 -11.69,26.09 -26.09,26.09 -14.41,0 -26.09,-11.68 -26.09,-26.09 0,-14.41 11.68,-26.09 26.09,-26.09zm0 -7.32c18.45,0 33.4,14.96 33.4,33.41 0,18.45 -14.95,33.4 -33.4,33.4 -18.45,0 -33.41,-14.95 -33.41,-33.4 0,-18.45 14.96,-33.41 33.41,-33.41z"/>
   <path id="rim" class="fil8" d="M33.41 7.02c14.57,0 26.39,11.81 26.39,26.39 0,14.58 -11.82,26.39 -26.39,26.39 -14.58,0 -26.39,-11.81 -26.39,-26.39 0,-14.58 11.81,-26.39 26.39,-26.39zm0 4.23c12.23,0 22.15,9.92 22.15,22.16 0,12.23 -9.92,22.15 -22.15,22.15 -12.24,0 -22.16,-9.92 -22.16,-22.15 0,-12.24 9.92,-22.16 22.16,-22.16z"/>
  </g>
</svg>