<?xml version="1.0" encoding="UTF-8"?>
<!DOCTYPE svg PUBLIC "-//W3C//DTD SVG 1.1//EN" "http://www.w3.org/Graphics/SVG/1.1/DTD/svg11.dtd">
<!-- Creator: CorelDRAW 2020 (64-Bit) -->
<svg xmlns="http://www.w3.org/2000/svg" xml:space="preserve" width="351px" height="351px" version="1.1" style="shape-rendering:geometricPrecision; text-rendering:geometricPrecision; image-rendering:optimizeQuality; fill-rule:evenodd; clip-rule:evenodd"
viewBox="0 0 108.65 108.65"
 xmlns:xlink="http://www.w3.org/1999/xlink"
 xmlns:xodm="http://www.corel.com/coreldraw/odm/2003">
 <defs>
  <style type="text/css">
   <![CDATA[
    .fil3 {fill:#1B1B1B}
    .fil1 {fill:#1B1B1B}
    .fil0 {fill:#999999}
    .fil2 {fill:#B5B5B5}
    .fil4 {fill:url(#id0)}
    .fil5 {fill:url(#id1)}
   ]]>
  </style>
  <radialGradient id="id0" gradientUnits="objectBoundingBox" cx="50%" cy="50%" r="50%" fx="50%" fy="50%">
   <stop offset="0" style="stop-opacity:1; stop-color:black"/>
   <stop offset="0.768627" style="stop-opacity:1; stop-color:black"/>
   <stop offset="0.8" style="stop-opacity:1; stop-color:#2B2B2B"/>
   <stop offset="0.831373" style="stop-opacity:1; stop-color:#262626"/>
   <stop offset="0.858824" style="stop-opacity:1; stop-color:#202020"/>
   <stop offset="0.890196" style="stop-opacity:1; stop-color:#505050"/>
   <stop offset="0.901961" style="stop-opacity:1; stop-color:#434343"/>
   <stop offset="0.94902" style="stop-opacity:1; stop-color:#363636"/>
   <stop offset="0.968627" style="stop-opacity:1; stop-color:#3B3B3B"/>
   <stop offset="1" style="stop-opacity:1; stop-color:#404040"/>
  </radialGradient>
  <radialGradient id="id1" gradientUnits="userSpaceOnUse" gradientTransform="matrix(1 -0 -0 1 0 0)" cx="54.32" cy="54.32" r="43.04" fx="54.32" fy="54.32">
   <stop offset="0" style="stop-opacity:1; stop-color:#1B1B1B"/>
   <stop offset="0.839216" style="stop-opacity:1; stop-color:black"/>
   <stop offset="0.85098" style="stop-opacity:1; stop-color:#949494"/>
   <stop offset="0.858824" style="stop-opacity:1; stop-color:#1B1B1B"/>
   <stop offset="0.909804" style="stop-opacity:1; stop-color:#242424"/>
   <stop offset="0.929412" style="stop-opacity:1; stop-color:#5B5B5B"/>
   <stop offset="0.960784" style="stop-opacity:1; stop-color:black"/>
   <stop offset="0.968627" style="stop-opacity:1; stop-color:#4B4B4B"/>
   <stop offset="0.988235" style="stop-opacity:1; stop-color:#2B2B2B"/>
   <stop offset="1" style="stop-opacity:1; stop-color:#1B1B1B"/>
  </radialGradient>
 </defs>
 <rect class="fil0" x="-219.27" y="-471.21" width="789.54" height="1021.75"/>
 <g id="Layer_x0020_1">
  <metadata id="CorelCorpID_0Corel-Layer"/>
  <g id="back_wheel">
   <path id="pattern" class="fil1" d="M44.96 62.46l-8.81 8.86c-0.87,0.87 -1.87,1.36 -3.09,1.52l-14.14 1.79c0.76,1.34 1.61,2.64 2.53,3.9l0.3 -0.42c0.9,-1.23 2.13,-1.96 3.64,-2.15l6.81 -0.84c1.38,-0.17 2.63,0.16 3.76,0.98l3.46 2.51c1.13,0.82 1.82,1.91 2.09,3.28l1.3 6.73c0.29,1.49 -0.02,2.89 -0.92,4.12l-0.27 0.38c1.47,0.48 2.95,0.87 4.45,1.18l-2.65 -13.94c-0.23,-1.21 -0.08,-2.31 0.49,-3.41l5.7 -11.11c0.93,-1.82 2.67,-2.89 4.71,-2.89 2.04,0 3.79,1.07 4.72,2.89l5.7 11.11c0.56,1.1 0.72,2.2 0.49,3.41l-2.66 14c1.51,-0.31 3,-0.71 4.49,-1.2l-0.31 -0.42c-0.89,-1.23 -1.2,-2.63 -0.91,-4.12l1.3 -6.73c0.27,-1.37 0.96,-2.46 2.09,-3.28l3.46 -2.51c1.13,-0.82 2.37,-1.15 3.76,-0.98l6.8 0.84c1.51,0.19 2.75,0.92 3.64,2.15l0.28 0.38c0.91,-1.25 1.74,-2.54 2.49,-3.87l-14.07 -1.78c-1.22,-0.16 -2.23,-0.65 -3.09,-1.52l-8.81 -8.86c-1.44,-1.45 -1.92,-3.44 -1.29,-5.38 0.63,-1.94 2.19,-3.27 4.2,-3.59l12.33 -1.99c1.22,-0.19 2.32,0 3.4,0.59l12.49 6.86c0.17,-1.53 0.25,-3.08 0.24,-4.64l-0.49 0.16c-1.45,0.47 -2.87,0.33 -4.2,-0.41l-6 -3.32c-1.22,-0.67 -2.04,-1.67 -2.47,-2.99l-1.32 -4.07c-0.43,-1.33 -0.35,-2.61 0.24,-3.88l2.89 -6.21c0.65,-1.38 1.72,-2.33 3.17,-2.8l0.45 -0.14c-0.91,-1.25 -1.88,-2.45 -2.91,-3.57l-6.05 12.83c-0.52,1.12 -1.3,1.92 -2.4,2.47l-11.14 5.65c-1.82,0.92 -3.86,0.75 -5.51,-0.44 -1.65,-1.2 -2.44,-3.09 -2.13,-5.11l1.93 -12.34c0.19,-1.22 0.71,-2.21 1.6,-3.05l10.39 -9.76c-1.41,-0.64 -2.85,-1.19 -4.34,-1.67l0 0.52c0,1.52 -0.57,2.84 -1.68,3.88l-5.01 4.67c-1.02,0.95 -2.22,1.43 -3.62,1.43l-4.27 0c-1.4,0 -2.6,-0.48 -3.62,-1.43l-5.01 -4.67c-1.11,-1.04 -1.68,-2.36 -1.68,-3.88l0 -0.47c-1.47,0.48 -2.91,1.03 -4.3,1.66l10.34 9.72c0.9,0.84 1.42,1.83 1.61,3.05l1.92 12.34c0.32,2.02 -0.47,3.91 -2.12,5.11 -1.65,1.19 -3.69,1.36 -5.51,0.44l-11.15 -5.65c-1.09,-0.55 -1.87,-1.35 -2.4,-2.47l-6.07 -12.89c-1.04,1.14 -2.02,2.35 -2.93,3.61l0.5 0.16c1.45,0.47 2.52,1.42 3.16,2.8l2.9 6.21c0.59,1.26 0.67,2.55 0.24,3.88l-1.32 4.07c-0.43,1.32 -1.25,2.32 -2.48,2.99l-5.99 3.32c-1.33,0.74 -2.76,0.88 -4.21,0.41l-0.44 -0.15c-0.01,1.55 0.08,3.08 0.25,4.6l12.44 -6.83c1.07,-0.59 2.18,-0.78 3.39,-0.59l12.33 1.99c2.02,0.32 3.57,1.65 4.2,3.59 0.63,1.94 0.16,3.93 -1.28,5.38zm9.36 -13.68c3.06,0 5.55,2.48 5.55,5.54 0,3.06 -2.49,5.54 -5.55,5.54 -3.06,0 -5.54,-2.48 -5.54,-5.54 0,-3.06 2.48,-5.54 5.54,-5.54z"/>
   <path class="fil2" d="M54.32 35.3c10.51,0 19.03,8.51 19.03,19.02 0,10.51 -8.52,19.03 -19.03,19.03 -10.51,0 -19.02,-8.52 -19.02,-19.03 0,-10.51 8.51,-19.02 19.02,-19.02zm0 7.4c6.42,0 11.62,5.21 11.62,11.62 0,6.42 -5.2,11.62 -11.62,11.62 -6.41,0 -11.61,-5.2 -11.61,-11.62 0,-6.41 5.2,-11.62 11.61,-11.62z"/>
   <path class="fil3" d="M64.72 40.97c0.34,0 0.62,0.28 0.62,0.62 0,0.34 -0.28,0.61 -0.62,0.61 -0.34,0 -0.61,-0.27 -0.61,-0.61 0,-0.34 0.27,-0.62 0.61,-0.62zm-0.73 -1.99c0.34,0 0.61,0.27 0.61,0.61 0,0.34 -0.27,0.61 -0.61,0.61 -0.34,0 -0.62,-0.27 -0.62,-0.61 0,-0.34 0.28,-0.61 0.62,-0.61zm-2.32 0.77c0.34,0 0.61,0.27 0.61,0.61 0,0.34 -0.27,0.61 -0.61,0.61 -0.34,0 -0.62,-0.27 -0.62,-0.61 0,-0.34 0.28,-0.61 0.62,-0.61zm-5.02 -2.19c0.3,-0.17 0.67,-0.07 0.84,0.23 0.17,0.29 0.07,0.67 -0.22,0.84 -0.29,0.17 -0.67,0.07 -0.84,-0.23 -0.17,-0.29 -0.07,-0.67 0.22,-0.84zm-1.63 -1.36c0.29,-0.17 0.67,-0.07 0.84,0.22 0.17,0.3 0.07,0.67 -0.23,0.84 -0.29,0.17 -0.67,0.07 -0.84,-0.22 -0.16,-0.3 -0.06,-0.67 0.23,-0.84zm-1.63 1.83c0.3,-0.17 0.67,-0.07 0.84,0.22 0.17,0.3 0.07,0.67 -0.22,0.84 -0.29,0.17 -0.67,0.07 -0.84,-0.22 -0.17,-0.3 -0.07,-0.67 0.22,-0.84zm-5.43 0.61c0.17,-0.29 0.55,-0.39 0.84,-0.22 0.3,0.17 0.4,0.54 0.23,0.84 -0.17,0.29 -0.55,0.39 -0.84,0.22 -0.3,-0.17 -0.4,-0.54 -0.23,-0.84zm-2.1 -0.36c0.17,-0.3 0.55,-0.4 0.84,-0.23 0.3,0.17 0.4,0.55 0.23,0.84 -0.17,0.3 -0.55,0.4 -0.84,0.23 -0.29,-0.17 -0.39,-0.55 -0.23,-0.84zm-0.49 2.39c0.17,-0.29 0.55,-0.39 0.84,-0.22 0.3,0.17 0.4,0.54 0.23,0.84 -0.17,0.29 -0.55,0.39 -0.84,0.22 -0.3,-0.17 -0.4,-0.54 -0.23,-0.84zm-4.39 3.25c0,-0.34 0.27,-0.61 0.61,-0.61 0.34,0 0.61,0.27 0.61,0.61 0,0.34 -0.27,0.62 -0.61,0.62 -0.34,0 -0.61,-0.28 -0.61,-0.62zm-2 0.74c0,-0.34 0.27,-0.62 0.61,-0.62 0.34,0 0.62,0.28 0.62,0.62 0,0.34 -0.28,0.61 -0.62,0.61 -0.34,0 -0.61,-0.27 -0.61,-0.61zm0.77 2.32c0,-0.34 0.27,-0.62 0.61,-0.62 0.34,0 0.62,0.28 0.62,0.62 0,0.34 -0.28,0.61 -0.62,0.61 -0.34,0 -0.61,-0.27 -0.61,-0.61zm-2.19 5.01c-0.17,-0.29 -0.06,-0.67 0.23,-0.84 0.29,-0.17 0.67,-0.07 0.84,0.23 0.17,0.29 0.07,0.67 -0.23,0.84 -0.29,0.16 -0.67,0.06 -0.84,-0.23zm-1.36 1.64c-0.17,-0.3 -0.07,-0.67 0.22,-0.84 0.3,-0.17 0.67,-0.07 0.84,0.22 0.17,0.29 0.07,0.67 -0.22,0.84 -0.29,0.17 -0.67,0.07 -0.84,-0.22zm1.83 1.62c-0.17,-0.29 -0.07,-0.67 0.22,-0.84 0.3,-0.17 0.67,-0.07 0.84,0.23 0.17,0.29 0.07,0.67 -0.22,0.83 -0.3,0.17 -0.67,0.07 -0.84,-0.22zm0.61 5.43c-0.29,-0.17 -0.39,-0.54 -0.22,-0.84 0.17,-0.29 0.54,-0.39 0.84,-0.22 0.29,0.17 0.39,0.54 0.22,0.84 -0.17,0.29 -0.54,0.39 -0.84,0.22zm-0.36 2.1c-0.29,-0.17 -0.4,-0.55 -0.23,-0.84 0.17,-0.29 0.55,-0.39 0.84,-0.22 0.3,0.17 0.4,0.54 0.23,0.84 -0.17,0.29 -0.55,0.39 -0.84,0.22zm2.39 0.49c-0.29,-0.17 -0.39,-0.54 -0.22,-0.84 0.17,-0.29 0.55,-0.39 0.84,-0.22 0.29,0.17 0.39,0.54 0.22,0.84 -0.17,0.29 -0.54,0.39 -0.84,0.22zm3.25 4.4c-0.34,0 -0.61,-0.28 -0.61,-0.62 0,-0.33 0.27,-0.61 0.61,-0.61 0.34,0 0.62,0.28 0.62,0.61 0,0.34 -0.28,0.62 -0.62,0.62zm0.74 2c-0.34,0 -0.62,-0.28 -0.62,-0.62 0,-0.34 0.28,-0.61 0.62,-0.61 0.34,0 0.61,0.27 0.61,0.61 0,0.34 -0.27,0.62 -0.61,0.62zm2.32 -0.77c-0.34,0 -0.62,-0.28 -0.62,-0.62 0,-0.34 0.28,-0.61 0.62,-0.61 0.34,0 0.61,0.27 0.61,0.61 0,0.34 -0.27,0.62 -0.61,0.62zm5.01 2.18c-0.29,0.17 -0.67,0.07 -0.84,-0.22 -0.17,-0.3 -0.07,-0.67 0.23,-0.84 0.29,-0.17 0.67,-0.07 0.84,0.22 0.17,0.29 0.06,0.67 -0.23,0.84zm1.64 1.37c-0.3,0.16 -0.67,0.06 -0.84,-0.23 -0.17,-0.29 -0.07,-0.67 0.22,-0.84 0.3,-0.17 0.67,-0.07 0.84,0.23 0.17,0.29 0.07,0.67 -0.22,0.84zm1.62 -1.83c-0.29,0.17 -0.67,0.07 -0.84,-0.23 -0.17,-0.29 -0.07,-0.67 0.23,-0.84 0.29,-0.17 0.67,-0.07 0.84,0.23 0.17,0.29 0.06,0.67 -0.23,0.84zm5.43 -0.62c-0.17,0.3 -0.54,0.4 -0.84,0.23 -0.29,-0.17 -0.39,-0.55 -0.22,-0.84 0.17,-0.3 0.54,-0.4 0.84,-0.23 0.29,0.17 0.39,0.55 0.22,0.84zm2.1 0.37c-0.17,0.29 -0.54,0.39 -0.84,0.22 -0.29,-0.17 -0.39,-0.55 -0.22,-0.84 0.17,-0.29 0.54,-0.39 0.84,-0.22 0.29,0.17 0.39,0.54 0.22,0.84zm0.49 -2.4c-0.17,0.29 -0.54,0.4 -0.84,0.23 -0.29,-0.17 -0.39,-0.55 -0.22,-0.84 0.17,-0.3 0.55,-0.4 0.84,-0.23 0.29,0.17 0.39,0.55 0.22,0.84zm4.4 -3.25c0,0.34 -0.27,0.62 -0.61,0.62 -0.34,0 -0.62,-0.28 -0.62,-0.62 0,-0.34 0.28,-0.61 0.62,-0.61 0.34,0 0.61,0.27 0.61,0.61zm2 -0.73c0,0.34 -0.28,0.61 -0.61,0.61 -0.34,0 -0.62,-0.27 -0.62,-0.61 0,-0.34 0.28,-0.62 0.62,-0.62 0.33,0 0.61,0.28 0.61,0.62zm-0.77 -2.32c0,0.34 -0.28,0.61 -0.62,0.61 -0.33,0 -0.61,-0.27 -0.61,-0.61 0,-0.34 0.28,-0.62 0.61,-0.62 0.34,0 0.62,0.28 0.62,0.62zm2.18 -5.02c0.17,0.3 0.07,0.67 -0.22,0.84 -0.3,0.17 -0.67,0.07 -0.84,-0.22 -0.17,-0.3 -0.07,-0.67 0.22,-0.84 0.3,-0.17 0.67,-0.07 0.84,0.22zm1.37 -1.63c0.17,0.29 0.06,0.67 -0.23,0.84 -0.29,0.17 -0.67,0.07 -0.84,-0.23 -0.17,-0.29 -0.07,-0.67 0.23,-0.84 0.29,-0.17 0.67,-0.07 0.84,0.23zm-1.83 -1.63c0.17,0.3 0.07,0.67 -0.23,0.84 -0.29,0.17 -0.67,0.07 -0.84,-0.22 -0.17,-0.3 -0.07,-0.67 0.23,-0.84 0.29,-0.17 0.67,-0.07 0.84,0.22zm-0.62 -5.43c0.3,0.17 0.4,0.55 0.23,0.84 -0.17,0.3 -0.55,0.4 -0.84,0.23 -0.3,-0.17 -0.4,-0.55 -0.23,-0.84 0.17,-0.3 0.55,-0.4 0.84,-0.23zm0.37 -2.1c0.29,0.17 0.39,0.55 0.22,0.84 -0.17,0.3 -0.54,0.4 -0.84,0.23 -0.29,-0.17 -0.39,-0.55 -0.22,-0.84 0.17,-0.3 0.54,-0.4 0.84,-0.23zm-2.4 -0.49c0.3,0.17 0.4,0.55 0.23,0.84 -0.17,0.29 -0.55,0.4 -0.84,0.23 -0.3,-0.17 -0.4,-0.55 -0.23,-0.84 0.17,-0.3 0.55,-0.4 0.84,-0.23z"/>
   <path id="tire" class="fil4" d="M54.32 0c30.01,0 54.33,24.32 54.33,54.32 0,30.01 -24.32,54.33 -54.33,54.33 -30,0 -54.32,-24.32 -54.32,-54.33 0,-30 24.32,-54.32 54.32,-54.32zm0 11.33c23.75,0 43,19.25 43,42.99 0,23.75 -19.25,43 -43,43 -23.74,0 -42.99,-19.25 -42.99,-43 0,-23.74 19.25,-42.99 42.99,-42.99z"/>
   <path id="rim" class="fil5" d="M54.32 11.29c23.77,0 43.04,19.26 43.04,43.03 0,23.77 -19.27,43.04 -43.04,43.04 -23.77,0 -43.03,-19.27 -43.03,-43.04 0,-23.77 19.26,-43.03 43.03,-43.03zm0 7.31c19.73,0 35.73,15.99 35.73,35.72 0,19.73 -16,35.73 -35.73,35.73 -19.73,0 -35.72,-16 -35.72,-35.73 0,-19.73 15.99,-35.72 35.72,-35.72z"/>
  </g>
 </g>
</svg>
